<svg id="Capa_1" data-name="Capa 1" xmlns="http://www.w3.org/2000/svg" viewBox="0 0 30 30"><defs><style>.cls-1{fill:#4d4d4d;}</style></defs><title>persona</title><path class="cls-1" d="M22.4,20.56,18,18.87V17.24a4.75,4.75,0,0,0,.39-.34,4.86,4.86,0,0,0,1.42-3.45v-3.3A4.59,4.59,0,0,0,15.05,5.7a4.6,4.6,0,0,0-4.72,4.45v3.31a4.85,4.85,0,0,0,1.41,3.43,3.57,3.57,0,0,0,.4.35v1.64L7.68,20.6a2.93,2.93,0,0,0-2.46,2.89v1.37L5.4,25a13.94,13.94,0,0,0,19.3,0l.18-.17V23.44A2.94,2.94,0,0,0,22.4,20.56ZM15.06,27.9l0-.18a12.75,12.75,0,0,1-8.65-3.36v-.88a1.77,1.77,0,0,1,1.53-1.74L12.41,20l.59.38a2.81,2.81,0,0,0,2,.88,2.75,2.75,0,0,0,2-.89l.59-.38,4.41,1.67.11,0a1.78,1.78,0,0,1,1.53,1.75v.87a12.68,12.68,0,0,1-8.65,3.4Zm1.3-8.43-.11.09a1.58,1.58,0,0,1-1.22.56,1.62,1.62,0,0,1-1.21-.55l-.52-.35v-1.3a4.59,4.59,0,0,0,3.49,0v1.27Zm0-10,.07-.16-1.06-.48L15.25,9a5.49,5.49,0,0,1-3.76,2.63V10.15a3.44,3.44,0,0,1,3.56-3.29,3.43,3.43,0,0,1,3.55,3.29V12a6.73,6.73,0,0,1-3.08-1.32A5,5,0,0,0,16.32,9.48Zm-4.83,3.34a7.5,7.5,0,0,0,3.17-1.39,7.77,7.77,0,0,0,3.94,1.7v.32a3.73,3.73,0,0,1-1.09,2.63,3.46,3.46,0,0,1-4.94,0,3.71,3.71,0,0,1-1.08-2.61Z"/><path class="cls-1" d="M15.06,1A13.95,13.95,0,0,0,2.86,21.71l.09.15,1-.56-.08-.16A12.79,12.79,0,1,1,26.29,21l-.08.16,1,.55.09-.15A14,14,0,0,0,15.06,1Z"/></svg>